<?xml version="1.0" encoding="utf-8"?>
<svg version="1.1" id="Layer_1" xmlns="http://www.w3.org/2000/svg" xmlns:xlink="http://www.w3.org/1999/xlink" x="0px" y="0px"
	 viewBox="0 0 5000 1312.585" enable-background="new 0 0 5000 1312.585" xml:space="preserve">
<g>
	<path d="M4885.134,37.37c3.071-1.742,6.338-3.808,6.689-7.426c0.405-4.175,3.765-4.647,6.182-6.016
		c5.043-2.857,10.959,0.223,6.116,7.066c-7.115,10.052-13.986,20.276-21.165,30.762c9.122,10.91,22.719-6.206,36.58-2.624
		c0.74,4.747-6.176,9.131-9.827,10.193c-19.684,5.724-31.51,21.24-44.37,35.464c-11.629,12.863-10.507,60.306-21.542,93.523
		c-31.125,93.684-25.637,106.545-46.868,155.846c-14.084,32.705-13.756,48.132-19.974,90.631
		c-5.341,36.508,2.305,50.146-8.003,70.078c-10.059,19.45,8.609,42.06,9.722,59.624c0.88,13.899,6.494,27.073,5.808,41.149
		c-0.374,7.676,2.774,13.138,9.854,16.46c17.056,8.001,1.2,16.001,10.953,22.112c10.116,6.338,15.844,4.873,35.583,33.039
		c12.064,17.216-3.108,18.915,5.769,39.731c44.498,104.353,41.309,97.187,43.871,99.747c9.1,9.102-6.022,14.388,4.832,33.628
		c27.596,48.91,24.3,127.325,24.548,137.509c0.184,7.557,1.774,14.613,8.163,18.093c14.082,7.669,23.257,34.17,34.253,39.497
		c1.327,0.643,2.447,1.985,3.324,3.242c15.951,22.855,41.937,21.008,32.27,42.784c-4.692,10.568-9.501,3.318-12.733,7.8
		c-6.026,8.358-14.861,5.182-22.609,5.146c-7.547-0.036-13.84-3.831-18.687-9.89c-13.078-16.344-29.405-18.733-56.595-25.344
		c-13.098-3.184-17.37-14.892-11.124-26.924c7.736-14.901-0.973-12.73,2.141-20.762c7.411-19.109-0.838-36.481-5.788-54.195
		c-0.597-2.137-1.824-4.546-3.513-5.856c-10.126-7.854-14.341-19.884-21.467-29.833c-12.831-17.912-13.688-61.512-15.676-69.887
		c-1.878-7.918-8.23-10.663-12.744-15.535c-6.028-6.505-87.638,41.936-122.63-8.52c-9.682-13.962-37.607-39.411-41.773-39.144
		c-10.785,0.689-21.653-1.547-32.403,1.493c-6.28,1.775-13.164,0.242-19.388,3.104c-28.701,13.192-55.115,38.651-60.514,44.338
		c-4.765,5.021-6.551,9.393-4.594,16.459c3.894,14.064,4.625,28.747,5.798,43.245c0.972,12.006-1.042,23.904-7.19,34.402
		c-2.795,4.774-2.48,9.888-2.939,14.523c-1.038,10.455-6.005,20.752-1.734,31.707c3.631,9.312-11.494,22.149,8.7,35.956
		c8.854,6.054,13.616,15.721,21.019,23.069c2.235,2.218,2.034,6.768-1.083,9.538c-14.064,12.497-27.815,25.514-47.141,29.677
		c-20.303,4.374-13.617,16.281-29.132,22.831c-60.806,25.672-62.743,1.541-58.519-3.183c5.636-6.303,13.779-20.759,26.495-19.68
		c3.933,0.333,8.053-1.317,7.313-5.408c-2.08-11.497,5.052-19.897,9.473-28.765c3.729-7.479,4.792-17.044,13.848-21.755
		c3.223-1.676,2.408-6.879,2.838-10.754c2.141-19.29-3.185-37.495-7.621-55.831c-8.319-34.378-3.397-62.608-3.93-94.403
		c-0.16-9.566-4.678-17.822-5.511-27.053c-0.258-2.852-3.469-3.486-6.406-3.955c-5.284-0.844-10.405-2.712-15.688-3.565
		c-6.131-0.99-10.845-3.737-14.178-9.397c4.426-3.812,6.206-9.352,7.52-14.864c3.678-15.438,9.262-17.6,12.163-29.853
		c5.682-24.003,21.21-35.537,25.825-45.936c1.158-2.611,2.467-5.159,4.736-6.407c16.026-8.818,20.098-25.518,27.456-40.235
		c12.729-25.461,24.012-36.272,25.067-43.585c1.097-7.602,10.77-13.552,19.266-12.563c9.07,1.056,4.615-13.204,13.972-22.519
		c3.499-3.483-4.322-13.097-3.2-19.753c3.326-19.725-21.569-17.872-15.219-31.958c0.481-1.067-1.697-3.349-0.046-5.863
		c5.778,7.005,11.448,13.879,17.109,20.742c3.734-2.385,3.106-5.487,2.448-7.723c-8.025-27.274,11.104-45.778-10.582-83.487
		c-16.671-28.993,4.414-51.129-23.711-61.403c-24.188-8.836-28.985-0.419-35.151-12.666c-5.24-10.407-33.618-21.84-52.135-30.704
		c-16.201-7.755-7.528-8.256-45.153-14.891c-64.451-11.365-90.123-45.454-106.84-24.355c-7.656,9.663-18.039,15.485-29.059,20.375
		c-32.004,14.203,3.548,31.414,1.248,128.856c-0.412,17.485-97.538,37.093-109.169,36.625c-7.83-0.315-14.003,22.882-14.174,30.704
		c-0.237,10.884-3.497,21.352-2.96,32.249c0.67,13.619-6.224,24.116,2.898,40.559c3.137,5.656,4.723,11.271,4.251,17.632
		c-0.75,10.09-3.135-9.387,25.696,83.717c13.331,43.052,4.68,71.312-0.646,102.32c-20.884,121.596-3,67.263,25.639,149.23
		c1.555,4.451-0.544,9.268,1.619,13.708c4.968,10.194,9.017,20.841,18.997,27.767c12.982,9.012,5.231,14.749,11.157,38.248
		c3.303,13.098,2.007,26.36,1.134,39.349c-0.539,8.03-5.495,15.706-11.578,22.001c-3.613,3.739-7.833,2.553-11.945,2.952
		c-3.916,0.379-7.534,4.495-11.822,0.3c-4.472-4.375-6.456-9.405-6.105-15.572c0.547-9.616-1.036-19.231,2.001-28.882
		c3.483-11.072-3.617-18.388-4.102-21.048c-1.725-9.448-4.721-18.008-10.776-25.978c-3.655-4.81-4.085-12.125-5.764-18.368
		c-3.862-14.367-10.528-24.568-13.679-25.749c-8.075-3.027-12.434-9.687-17.581-16.008c-22.738-27.919-45.521-46.594-45.981-82.007
		c-0.193-14.84-4.645-79.351-4.645-79.351c0.186-13.894-28.477-32.963-31.106,80.396c-0.315,13.584-4.324,27.046-5.399,40.663
		c-1.569,19.886,6.831,35.411,8.104,42.51c4.67,26.048,24.042,19.996,11.864,38.957c-15.58,24.258-10.456,33.459-11.627,45.872
		c-3.591,38.09-39.613,48.399-44.062,23.831c-5.804-32.061,11.947-24.929,13.802-60.314c2.693-51.343-23.439-28.318-43.573-110.116
		c-0.698-2.838,2.437-9.273,1.392-13.504c-4.463-18.071-0.493-36.81-4.546-54.874c-4.479-19.959-2.25-40.208-2.01-60.285
		c0.205-17.166,11.281-61.382,11.456-71.337c0.129-7.3,5.834-13.534,4.566-21.168c-3.805-22.924,22.753-40.234,7.03-52.715
		c-2.417-1.918-3.131-4.739-1.761-7.336c12.851-24.376-27.135-48.882-14.185-81.317c2.678-6.707,2.297-12.089-1.34-18.507
		c-13.834-24.413-11.093-85.144-9.933-87.564c5.293-11.039-8.823-8.49,0.186-15.636c3.54-2.808-0.722-16.557,3.045-25.849
		c1.22-3.01-2.27-6.228-3.343-9.412c-1.195-3.549,6.651-1.303,4.678-6.633c-1.154-3.119,0.194-7.185-1.02-10.257
		c-1.938-4.899-1.831-9.792-2.071-14.803c-2.145-44.836,4.615-55.816-5.328-63.169c0.163,0.059-0.98,0.947-2.301,1.844
		c-14.412,9.798-17.473-4.882-19.668-6.138c-4.684-2.683-4.485-4.692,0.052-7.44c2.942-1.781,5.117-4.8,8.001-6.712
		c9.051-5.997,1.506-21.691,24.942-21.652c2.884,0.005,5.038-1.375,5.971-4.403c1.361-4.417,2.814-8.758,2.577-13.515
		c-0.102-2.05,1.541-3.796,3.401-3.931c0.925-0.067,2.921,2.085,2.87,3.16c-0.331,7.085,3.604,9.626,9.851,9.967
		c5.343,0.292,5.533,6.042,9.58,8.389c-13.78,28.876-22.892,12.855-11.754,93.663c1.885,13.672,4.224,15.701,16.712,14.477
		c7.942-0.778,16.147,1.898,23.885-1.885c4.071-1.99,32.264,14.385,36.043,16.869c17.136,11.262,7.78,41.153,15.638,49.475
		c0.753,0.798,0.701,1.962,0.081,3.174c-3.917,7.665-1.426,17.604-9.334,24.099c-3.45,2.834-1.423,8.184-1.332,12.306
		c0.062,2.793-5.775,6.056,0.445,8.554c13.901,5.582,10.381,5.229,20.51-1.148c3.629-2.284,7.392-3.866,11.907-3.681
		c9.988,0.409,19.987-3.605,29.985,0.045c12.688-4.556,26.235-0.398,39.094-3.896c4.021-1.094,8.551-1.125,12.732-0.641
		c7.558,0.876,14.402-2.894,21.803-2.657c4.842,0.155,5.878-11.388,6.083-16.197c0.492-11.556,3.73-51.66-3.026-72.516
		c-10.865-33.538,1.551-62.675,11.699-67.556c3.48-1.674,8.716-0.591,12.902,0.424c2.632,0.638,1.725,3.868,0.942,6.067
		c-1.324,3.716,1.842,2.544,3.083,2.548c4.912,0.017,8.961-2.34,11.979-5.978c4.245-5.119,19.563-16.991,33.361-13.12
		c9.056,2.54,19.084,1.357,28.725,2.427c11.881,1.319,23.507,3.812,35.016,6.322c7.193,1.569,14.408,0.801,21.671,2.696
		c34.085,8.893,49.159,8.594,65.731,10.058c12.322,1.088,23.849,5.478,35.875,7.77c20.373,3.883,26.282-0.742,36.641,3.944
		c5.282,2.389,10.473-3.304,16.485,0.845c4.081,2.817,9.98-2.357,14.924-2.346c9.347,0.023,18.179-3.216,27.442-3.133
		c2.688,0.024,5.577,0.094,8.024-0.807c13.032-4.797-5.864-9.155-1.07-45.02c-4.917,0.654-7.176,5.334-11.994,4.478
		c0.358-4.966,4.608-8.15,7.738-8.95c5.923-1.515,3.357-3.766,4.374-11.92c-2.703-1.571-5.54-0.554-8.166-1.095
		c-2.05-0.422-4.478-2.324-3.668-3.715c2.773-4.77-1.87-6.898-3.494-9.121c-8.787-12.034,1.213-10.224,0.293-15.903
		c-2.414-14.889-1.412-8.327,26.592-32.73c17.75-15.467,36.403-7.218,43.494-13.903c0.762-0.718,2.763-1.478,2.99-1.209
		c3.925,4.675,10.49,2.187,14.994,6.027c12.341,10.521,38.659,29.895,35.444,62.947c-1.242,12.769,6.038,47.638-11.038,48.72
		c0.706,1.539,0.992,2.748,1.303,2.754c4.528,0.091,8.407,6.501,10.906,4.816c5.999-4.044,12.568-7.501,18.027-12.167
		c17.229-14.723,31.576-31.831,41.278-52.612c8.277-17.729,20.936-22.692,24.737-41.982c8.305-42.153,17.319-50.375,27.101-86.247
		c3.467-12.712,16.105-28.489,10.128-46.429c-3.611-10.841-6.174-21.851-2.677-33.594c2.247-7.545-2.883-19.609,2.909-20.603
		c9.308-1.598,8.845,16.399,9.205,23.95c12.23-4.296,7.865-14.004,22.315-37.901c2.817-4.658,6.585-6.278,12.384-3.709
		c-2.756,6.648-5.397,13.295-8.286,19.833c-3.22,7.284,2.879,9.739,6.014,2.405c2.053-4.805,13.821-21.89,14.177-22.161
		c6.333-4.823,11.458-0.669,8.411,5.74c-6.684,14.059-11.136,16.569-6.255,18.736c-0.808-1.521,1.233,4.385,2.654-0.309
		L4885.134,37.37z M4036.026,383.119c-9.193,0.312-23.803-5.48-25.261,0.709C4005.78,404.992,4026.486,394.986,4036.026,383.119z"/>
	<path d="M3047.901,322.313c2.677,0.032,5.18,0.306,7.696-1.603c15.689-11.911,26.713-26.319,30.063-46.586
		c7.865-47.587,23.549-56.854,28.208-91.61c3.844-28.673,39.018-86.152,29.173-105.236c-8.023-15.554-5.359-32.333-6.311-49.751
		c8.625,2.786,10.257,8.692,11.609,14.719c0.42,1.875,0.225,3.879,2.907,4.194c5.602,0.658,6.723-6.085,6.508-7.721
		c-1.441-10.953,3.152-21.409,2.532-32.298c-0.135-2.385-1.189-5.974,3.014-6.293c4.965-0.376,3.889,3.713,4.377,6.542
		c1.996,11.59,1.437,15.569,6.539,15.723c2.008,0.061,2.012-1.898,2.489-3.289c5.628-16.407,5.084-18.778,10.153-19.09
		c4.344-0.268,3.075,3.475,3.999,5.711c0.578,1.4,1.607,2.614,2.433,3.912c-0.961-0.367-2.054-0.958-1.641,0.979
		c0.457-0.436,0.913-0.873,1.369-1.309c6.447,2.77,4.701,8.285,3.904,13.015c-1.015,6.013-2.206,12.168-4.586,17.719
		c-1.634,3.809,1.049,5.563,1.029,8.547c9.063-4.325,8.266-16.778,13.369-14.937c7.195,2.595-4.703,20.285-5.443,21.292
		c-9.737,13.24-5.396,19.833-21.068,35.3c-14.687,14.495-9.273,21.931-24.904,87.199c-0.319,1.331-8.817,36.493-10.091,38.77
		c-12.095,21.62-4.951,40.3-12.963,86.081c-1.524,8.719,4.863,12.425-11.715,59.432c-0.37,1.05-24.243,59.577-23.573,97.567
		c0.171,9.675-0.316,19.114-3.514,28.52c-3.037,8.933-0.671,18.531-1.129,27.823c-0.084,1.709-0.606,17.319,1.127,18.337
		c14.324,8.41-4.887,18.936,8.238,27.247c17.147,10.856,11.3,27.01,11.696,37.538c0.208,5.511-2.196,9.554-5.803,13.422
		c-1.947,2.088-6.383,1.841-5.909,6.233c0.819,7.6-2.44,8.391,7.269,23.645c5.085,7.988,4.599,17.085,5.94,25.516
		c3.478,21.866,23.98,44.103,26.932,133.842c0.738,22.432,6.746,44.073,22.512,61.797c7.186,8.078,14.15,30.42,20.636,35.328
		c1.857,1.405,0.85,4.42,0.92,6.719c0.203,6.651,8.203,1.821,5.414,6.106c-8.247,12.664,8.309,22.175,8.464,40.146
		c0.058,6.749,1.381,12.92,4.208,18.934c1.962,4.173,8.613,59.949,30.545,51.234c3.64-1.446,6.002,0.512,3.898,5.066
		c-7.132,15.438,30.538,46.23,36.859,52.816c-26.09,19.123-57.252,3.759-79.568,3.698c-36.944-0.1,9.771-52.639-13.73-72.213
		c-2.041-1.7-3.9-3.85-5.219-6.151c-10.588-18.472-22.448-36.084-34.719-53.48c-27.35-38.771-22.27-65.357-41.808-85.707
		c-28.471-29.655-17.542-49.235-34.321-47.399c-5.617,0.615-7.31-2.518-8.606-7.181c-3.405-12.25-9.962-23.434-12.26-36.113
		c-0.457-2.519-2.024-5.043-4.314-6.759c-26.363-19.761-29.296-41.288-42.108-35.401c-21.018,9.657-15.747,15.601-49.344,76.233
		c-2.497,4.506-0.321,10.089-3.946,13.116c-6.693,5.589-9.112,27.366-24.728,42.381c-14.306,13.755-5.631,34.635-26.618,71.948
		c-7.602,13.514,0.242,17.327,23.727,25.674c17.2,6.113,17.289-15.889,25.988-4.644c5.911,7.64,14.742,9.883,23.199,12.037
		c24.467,6.232,14.806,19.713,11.211,35.098c-2.351,10.068-6.977,19.411-8.38,29.871c-0.834,6.224-3.995,12.156-9.119,16.92
		c-8.668,8.058-18.839,31.248-30.196,27.248c-5.253-1.85-5.828-7.403-6.433-12.608c-0.808-6.949-4.341-20.085-4.341-20.085
		c3.785-6.805-0.034-13.451-0.155-20.152c-0.106-5.889-0.017-11.704-5.567-15.704c-4.669-3.365,4.907-13.159-12.212-17.983
		c-11.257-3.172-22.838-3.822-34.297-5.418c-13.526-1.883-16.366,21.312-28.855,34.852c-1.961,2.126-0.985,5.046,0.185,7.701
		c5.484,12.443,5.765,26.072,8.869,39.051c1.018,4.259-0.334,5.354-3.642,6.681c-52.998,21.26-64.826,14.819-91.063,16.261
		c-4.246,0.234-9.356-2.088-12.028,4.026c-6.439,14.733,13.489,14.499,25.032,62.214c0.879,3.635,0.603,5.808-1.686,8.152
		c-11.416,11.686-14.459,13.707-16.103,18.208c-4.236,11.599-12.255,21.151-17.664,32.076c-7.771,15.696-20.766,5.553-24.132,4.822
		c-5.02-1.091-3.209-5.438-4.722-8.181c-7.075-12.819,8.632-36.88,7.705-52.555c-0.707-11.947,13.972-11.052,8.682-31.117
		c-13.484-51.152-37.183-105.654-36.92-134.637c0.13-14.325-2.584-28.346-4.066-42.5c-4.071-38.852-9.524-136.397-9.524-136.397
		c-3.172-16.28,5.042-25.558,4.263-46.463c-0.667-17.875,7.986-5.354,0.911-36.837c-5.863-26.09,10.03-39.22,12.218-68.291
		c2.824-37.515,0.242-65.731-1.277-104.743c-0.398-10.224-3.633-20.12-11.537-30.377c3.275-7.282-3.313-11.238-5.87-16.352
		c-6.503-13.006-10.793-27.215-20.3-38.626c-2.782-3.34-1.288-7.577-2.562-11.051c-12.588-34.302-16.856-39.992-16.856-39.992
		c-0.999-9.171-7.897-16.066-9.367-24.978c-2.64-16.003-10.022-30.435-14.954-45.675c-12.315-38.062-21.705-71.244-21.705-71.244
		c-5.635-14.593-9.417,8.193-18.925-4.525c-4.349-5.817-7.885-12.169-12.723-17.724c-3.371-3.87-1.993-8.3,2.594-11.525
		c53.445-37.58,54.913-40.719,59.864-32.636c12.983,21.196,18.718,24.677,12.572,28.131c-12.845,7.218,0.862,15.68-11.736,25.284
		c-9.623,7.336-10.417,10.358-5.99,21.763c7.527,19.394,14.394,39.235,26.043,56.593c9.535,14.206,17.564,28.786,20.775,45.688
		c0.714,3.762,7.889,3.97,6.652,8.385c-3.702,13.22,13.57,21.852,15.782,35.514c3.623,22.371,18.172,29.103,25.21,37.201
		c3.544-1.91,3.699-4.524,2.573-7.258c-2.944-7.149-3.542-15.01-7.444-21.959c-6.403-11.403,0.381-17.945-6.175-18.628
		c-10.101-1.052,13.902-2.728,5.588-23.336c-1.452-3.598-0.871-7.775,3.287-10.187c3.011-1.747,8.315-1.144,7.309-7.109
		c-0.037-0.222,1.359-1.095,1.735-0.918c6.846,3.225,11.384-1.77,16.749-4.293c3.241-1.525,13.207-0.232,18.537-0.807
		c16.562-1.786,28.563,3.958,35.126,19.968c4.147,10.118,27.769,22.824,19.35,59.337c-1.155,5.009-1.247,9.983-1.755,14.983
		c-0.504,4.97,0.667,9.13,4.845,12.288c7.682,5.806,1.966,13.364,24.078,26.724c7.573,4.575,30.95,21.382,34.333,34.7
		c10.967,43.184,0.101,68.06-4.023,109.675c-1.267,12.784-5.896,24.77-6.332,37.745c-0.596,17.711-22.933,22.865-7.646,50.905
		c1.186,2.177,2.465,4.836,1.406,6.585c-7.752,12.81-5.251,27.571-8.317,41.234c-3.516,15.673-8.417,30.842-14.464,45.817
		c-6.724,16.655-21.392,74.021-21.498,75.021c-1.734,16.377-1.289,16.868,14.844,16.679c20.528-0.24,21.582,1.737,24.716-11.076
		c9.958-40.706,26.563-49.547,28.543-71.333c0.801-8.813,11.174-21.814,5.284-40.378c-2.138-6.739,3.192-18.787,3.645-36.526
		c0.468-18.34,8.745-61.995,19.667-90.807c5.248-13.844-10.709-19.024,3.05-40.33c12.015-18.607,26.215-14.054,26.419-56.576
		c0.034-7.107-10.974-1.114-14.899-4.867c-2.155-2.06,0.393-5.352-0.255-7.568c-4.568-15.633-0.023-31.359-0.734-47.031
		c-0.502-11.078,5.163-21.494,7.574-32.337c2.659-11.958,2.426-24.352,5.847-36.165c0.1-0.346,0.077-0.821-0.083-1.137
		c-4.834-9.565-2.065-19.631-1.991-29.523c0.447-60.146-27.238-76.042-37.446-138.759c-10.479-64.393-10.797-61.321-29.419-97.077
		c-23.977-46.036-25.52-67.845-26.723-72.916c-6.533-27.545-14.701-13.888-21.113-38.785c-6.121-23.763-16.841-34.362-11.945-38.222
		c4.882-3.849,3.555,7.761,10.999,7.526c3.298-6.999-2.494-13.214-1.966-19.933c0.051-0.656-0.835-1.334-1.007-2.067
		c-1.63-6.968-0.597-7.858,7.483-6.239c-0.155-4.383-2.677-8.821,0.392-13.218c1.015,0.274,2.184,0.397,3.167,0.891
		c2.494,1.255,4.073,12.022,7.769,0.408c1.025-3.22,4.152-0.435,5.22,1.307c7.416,12.091,2.852,27.374,9.844,33.265
		c4.046-1.635,3.047-8.345,9.202-8.472c2.75,13.131,0.83,26.7,0.116,40.028c-1.212,22.614,3.366,30.714,46.395,98.226
		c18.966,29.757,14.766,43.472,22.976,58.264c14.355,25.863,12.58,41.724,29.207,61.024c7.094,8.235,21.666,28.403,28.066,28.042
		c4.598-0.259,6.714-0.936,2.175-12.338c-9.665-24.282,0.698-27.53-2.299-37.15c-4.42-14.186-2.019-28.116,0.427-42.246
		c2.003-11.577,9.185-18.191,19.641-19.928c5.116-0.85,7.142-6.057,12.905-5.491c24.136,2.372,65.306,31.461,61.32,55.968
		c-4.784,29.405,8.961,37.914-11.785,50.302c-6.069,3.624-7.655,8.617-4.97,15.643c-0.744-0.549-1.429-0.525-1.646,0.195
		c-0.101,0.336,0.359,0.842,0.565,1.27C3047.302,323.434,3047.602,322.874,3047.901,322.313z M2755.837,1032.46
		c9.427-1.493,19.967,6.584,27.058,3.236c2.739-1.293,4.421-4.26-0.182-6.636c-3.023-1.561-6.933,0.352-10.129-2.918
		c4.758-4.254,23.969,0.063,31.267-11.663c5.384-8.653,7.823-18.561,10.492-28.282c1.12-4.08-0.665-6.67-5.269-7.032
		c-23.672-1.856-70.377-2.246-69.33-48.95c0.407-18.139-3.977-36.247-0.368-54.453c0.462-2.328,0.904-5.162-1.261-8.091
		c-3.335,6.168-4.745,12.635-5.56,18.917c-9.904,76.417-8.919,91.04-3.014,106.064c5.549,14.118,8.083,55.187,7.962,61.339
		c-0.216,10.917,4.941,13.28,15.299,9.393c10.462-3.927,17.295-11.721,23.523-19.839
		C2771.635,1035.597,2760.942,1040.788,2755.837,1032.46z M2707.888,397.836c9.682-1.342,9.682-1.342,11.598-7.875
		C2714.983,391.246,2712.899,394.787,2707.888,397.836z M2701.52,397.246c-1.878,3.763-1.56,6.338,1.786,8.218
		C2704.295,402.796,2704.832,400.293,2701.52,397.246z M2818.938,657.359c-0.996-4.401-4.75-3.21-4.704-0.774
		c0.03,1.588,0.445,3.073,2.093,3.479C2818.518,660.605,2818.454,658.628,2818.938,657.359z"/>
	<path d="M1045.028,560.914c-2.122-3.084-4.551-5.606-3.899-10.257c0.668-4.769-0.695-9.823-1.312-16.245
		c-7.457,6.871-15.718,10.852-17.947,20.464c-0.973,4.196-3.381,6.831-8.071,6.619c-5.206-20.324,16.358-12.292,2.269-24.436
		c-1.97-1.698-3.426-4.187-4.592-6.572c-1.324-2.708,2.278-3.713,2.663-5.817c0.928-5.07,5.908-5.775,8.875-8.618
		c4.059-3.891,3.081-10.349-2.409-11.131c-5.991-0.853-10.644-4.076-16.065-6.01c2.267-6.034,7.993-1.856,11.603-4.747
		c-4.674-20.544-40.015-43.904-55.554-80.711c-9.789-23.188-17.682-29.13-34.171-44.04c-1.485-1.343-3.013-2.052-2.858-4.266
		c0.183-2.617,2.057-3.062,4.076-2.937c9.484,0.586,1.299-12.952,9.494-8.346c7.364,4.139,4.771-6.303,4.159-7.307
		c-1.424-2.335-0.021-3.514,1.587-4.665c3.507-2.509,6.044,5.191,9.102,5.289c6.106-3.718,1.718-13.41,10.156-16.468
		c1.862,3.295-0.251,8.433,4.569,11.03c3.604-3.757-0.112-10.413,4.769-13.845c2.99,0.563,2.843,3.944,4.486,5.888
		c2.958,3.498,2.691,6.297,0.001,10.261c-2.95,4.346-4.244,9.804-6.342,14.743c-3.296,7.76-3.284,14.834,3.08,21.364
		c0,0,20.873,27.471,43.631,52.611c17.392,19.212,12.785,23.9,25.489,35.322c26.875,24.165,23.305,28.318,39.989,32.777
		c0.373-4.227-4.117-3.512-4.904-6.925c3.023-0.871,7.223-0.926,6.655-6.438c-0.244-2.369,1.253-5.219,6.52-4.673
		c6.02,0.624,13.395-13.236,11.706-19.286c-2.475-8.867-0.479-13.104,7.812-16.546c-0.443-2.291-2.959-2.319-4.121-3.77
		c-1.159-1.448-4.682-1.29-2.784-4.948c1.225-2.36,2.36-4.032,5.037-3.599c12.686,2.055,38.155-9.405,40.895-9.947
		c8.125-1.606,16.135-1.087,24.142-1.933c26.989-2.853,47.072,30.716,47.386,56.858c0.172,14.312,5.503,17.626,1.052,27.329
		c-5.039,10.987-10.699-2.824-13.75,11.698c-1.833,8.726-8.037,25.698,1.013,25.713c20.123,0.033,6.767,8.722,35.638,11.578
		c42.57,4.212,54.323,26.064,66.208,33.656c88.007,56.217,61.149,31.819,96.607,56.107c8.883,6.084,19.42,8.876,28.691,14.392
		c7.289,4.336,20.639-5.128,20.78-13.957c0.249-15.545-2.069-31.215,0.177-46.604c2.188-14.997,0.776-30.185,3.624-45.056
		c2.564-13.389-6.486-38.49-6.382-53.942c0.041-6.047-4.82-8.974-9.845-9.642c-4.36-0.58-7.952-2.433-11.863-4.47
		c4.436-0.283,8.871-0.565,13.522-0.862c-1.326-2.61-3.397-2.003-5.109-1.997c-9.457,0.031,3.95-4.942-4.199-6.54
		c-2.626-0.515-5.472,0.935-7.954-0.893c-0.408-1.344,1.277-1.752,1.361-2.477c1.006-8.716,0.955-8.71,9.041-9.06
		c2.306-0.1,4.696,0.317,7.38-1.309c-3.749-5.256-10.462-0.457-14.302-4.356c3.322-1.796,6.89-0.837,10.318-0.939
		c10.719-0.32,10.106-0.228,9.705-11.247c-0.239-6.576-4.778-4.635-8.884-6.121c3.901-2.825,9.916-3.376,8.44-10.01
		c-1.083-4.868,0.493-10.044-1.393-14.987c-13.114-34.37-17.319-69.458-19.493-80.149c-6.402-31.474-8.219-32.93-23.061-42.51
		c-26.749-17.265-29.503-17.802-27.77-20.569c2.862-4.57,5.834,1.742,20.218,8.049c-3.553-7.131-9.284-9.595-13.854-13.3
		c-4.496-3.645-0.302-7.048,3.284-4.795c2.606,1.638,4.938,3.713,7.458,5.657c3.922-6.985-5.339-8.566-5.522-13.694
		c3.29-3.88,5.111-0.673,19.255,11.803c2.2,1.941,2.241,1.894,8.305,1.142c-2.077-7.281-9.198-12.412-9.23-21.744
		c11.791,2.466,10.835,13.994,21.932,22.915c5.807,4.668,9.184,3.467,10.892-3.671c1.124-4.696,1.568-9.9,8.03-13.274
		c6.914,41.116-13.089,36.079,12.677,102.686c8.306,21.471,12.88,44.053,18.975,66.183c0.196,0.714,0.715,1.339,1.328,2.448
		c14.857-2.824,30.189-2.065,45.33-2.725c38.676-1.685,37.229,17.025,51.128,10.335c3.583-1.724,6.011,3.709,10.75,2.456
		c4.512-1.194,8.308-3.288,12.427-4.844c4.395-1.66,5.516,5.592,10.783,7.006c19.23,5.163,31.681,19.631,43.061,35.054
		c9.994,13.546,4.098,42.079-12.412,52.469c-2.309,1.453-5.087,2.504-6.437,4.803c-6.4,10.896-16.335,13.515-27.904,12.233
		c-8.354-0.926-13.303,4.065-20.429,10.034c8.011,2.61,14.453,3.226,20.409,4.997c24.381,7.248,39.138,33.151,63.659,44.832
		c6.384,3.041,13.024,11.614,26.726,18.128c9.804,4.661,18.314,11.478,26.231,18.814c4.009,3.716,8.553,6.656,12.572,10.282
		c2.794,2.52,5.328,3.084,9.381,1.849c8.409-2.564,12.242,1.019,11.246,9.996c-0.878,7.916,2.377,15.678,0.373,23.586
		c-0.418,1.648,1.239,2.673,2.251,3.825c6.812,7.756-7.548,17.557-8.634,9.192c-1.055-8.127-9.315-13.198-8.285-22.322
		c0.393-3.476-3.66-6.207-7.816-7.457c-31.55-9.495-44.863-30.015-89.722-37.045c-20.856-3.268-22.209-12.135-32.144-11.622
		c-4.485,0.232-6.716,1.636-8.007,6.422c-5.678,21.055-8.024,42.472-6.675,64.12c1.937,31.089,5.838,20.686,13.873,44.572
		c4.396,13.067,10.871,25.313,14.727,38.638c1.619,5.595,1.852,11.318,3.56,16.917c15.947,52.269,42.628,28.586,35.796,62.633
		c-2.097,10.447-5.392,19.334-16.833,22.771c10.676,27.555,21.415,49.202,14.594,73.563c-2,7.143,3.606,16.986-9.992,33.457
		c-10.082,12.211-27.444,12.651-38.528,1.455c-34.795-35.147-14.819-16.528-52.877-110.33c-0.406-1-9.587-25.911-14.285-24.699
		c-9.497,2.45,5.442,11.089-8.552,28.406c-3.592,25.715-7.206,51.534-3.975,77.47c1.61,12.927-3.852,29.781,0.847,48.584
		c2.018,8.078,9.198,29.515,1.807,66.287c-1.798,8.948-0.611,17.833-1.101,26.729c-0.544,9.894,30.874,7.624,22.874,31.658
		c-11.741,35.269,20.563,43.276,10.278,75.778c-3.339,10.554-10.438,17.641-20.756,18.593c-9.879,0.912-15.437-5.793-20.704-12.621
		c-2.476-3.21-12.887-38.874-12.752-56.939c0.058-7.732,2.064-34.665-4.441-45.834c-10.362-17.792-14.678-37.794-21.126-57.037
		c-12.177-36.341-5.22-48.972-7.529-58.261c-2.305-9.272-17.87-116.796-25.487-123.418c-2.317-2.014-2.568-4.849-2.368-7.52
		c1.198-16.002-4.597-52.148,3.781-75.569c0.389-1.089,1.146-2.288,0.968-3.301c-2.304-13.071,2.779-25.161,5.596-37.355
		c3.469-15.011,0.516-29.367-1.44-43.911c-1.325-9.857-24.035-9.728-16.754,2.198c6.138,10.055,10.08,13.724,6.518,16.042
		c-1.566,1.019-3.42-0.077-3.961-1.251c-5.171-11.227-15.554-18.196-22.435-27.924c-2.675-3.781-5.972-6.992-9.646-7.836
		c-11.476-2.636-19.552-11.766-30.875-14.731c-10.791-2.826-21.067-7.558-31.749-10.876c-17.906-5.563-34.585-13.697-49.706-24.567
		c-14.135-10.162-30.872-11.618-46.733-16.138c-2.309-0.658-3.502,0.188-4.398,2.352c-6.365,15.39,1.949,8.875-7.397,34.951
		c-2.234,6.233-3.673,12.567-5.141,18.985c-1.454,6.357-2.39,11.612,3.022,17.013c3.662,3.655,3.998,9.006,0.32,13.86
		c-17.703,23.365,0.629,24.881,4.439,38.974c5.633,20.837,16.449,39.98,19.672,61.62c3.01,20.207,8.484,39.999,8.269,60.731
		c-0.768,74.116,14.932,107.879-3.739,119.764c-6.159,3.92-10.455,10.456-18.134,12.322c-6.347,1.542-0.156,7.357-8.956,25.461
		c-7.577,15.588-26.524,15.642-33.262,0.065c-3.471-8.025-7.365-16.004-3.951-25.466c1.999-5.542-0.35-11.453-1.301-17.161
		c-0.517-3.101-2.379-6.29-10.315-7.9c-5.234-1.062-11.078-3.789-15.604-2.385c-4.803,1.49-2.9,8.841-4.825,13.356
		c-4.977,11.668-11.705,16.419-14.648,44.341c-2.225,21.112-21.127,49.034-37.319,33.421c-24.984-24.091-0.933-38.159-9.752-54.152
		c-12.039-21.832-20.194-20.334-20.453-30.386c-0.133-5.175-12.432-8.786-19.123-16.077c-11.246-12.255-1.707-10.482-11.366-36.833
		c-3.198-8.726-4.415-17.868-6.811-26.723c-4.017-14.846,0.653-27.843,7.493-41.003c-18.334-7.077-36.836-11.416-31.989-22.671
		c4.108-9.538,7.774-19.266,12.839-28.041c-2.301-3.746-6.377-0.899-8.617-3.416c-0.454-1.148-0.225-2.368,0.891-2.835
		c2.782-1.164,5.175-3.249,8.593-2.954c3.031,0.262,5.202-1.577,6.06-4.454c1.89-6.338,6.711-10.412,11.112-14.817
		c8.433-8.441,9.633-24.006,15.485-29.171c4.841-4.273,7.005-10.116,9.876-15.618c8.811-16.887-10.414-22.557-2.261-47.702
		c0.355-1.095,1.228-2.45,0.884-3.279c-7.121-17.143,6.312-32.215-2.79-59.397c-14.024-41.884-6.544-28.891-14.896-42.023
		c-4.146-6.519-4.49-6.617-10.301-0.552c-3.801,3.967-6.598-0.002-7.189-1.64c-3.066-8.506-9.718-8.805-16.979-8.113
		c0.462-3.635,5.591-0.752,5.435-4.625c1.156-0.401,1.274-0.679,0.353-0.833C1045.112,560.225,1045.07,560.57,1045.028,560.914z
		 M1182.437,909.626c5.929-3.285,10.217-6.149,10.066-12.017c-0.133-5.17,1.457-9.916,2.395-14.842
		c2.168-11.39-12.899-15.224-13.198-9.087C1181.14,885.163,1179.19,896.701,1182.437,909.626z M1087.982,749.952
		c-9.428,3.471-4.659,20.601-18.469,31.647c-2.13,1.703,0.213,3.308,0.873,4.976c0.846,2.139,1.648,2.891,4.175,2.095
		C1082.517,786.162,1084.546,780.607,1087.982,749.952z M1545.984,521.566c-0.227-0.695-0.27-1.829-0.711-2.015
		c-3.477-1.463-7.019-3.51-10.894-1.868c-1.61,0.682-8.366,13.655-1.356,14.951C1537.562,533.472,1545.904,526.258,1545.984,521.566
		z M1489.499,440.11c5.345,5.613,13.741,9.455,22.224,10.169C1501.204,440.648,1498.714,439.509,1489.499,440.11z M1536.283,472.483
		c-6.99-12.766-7.768-15.83-10.892-14.041c-1.341,0.768-2.266,2.463-1.183,3.94C1527.252,466.534,1528.884,472.037,1536.283,472.483
		z M1516.271,473.797c2.3-5.132-2.801-6.424-3.264-9.742c-0.779-5.586-8.4,0.543-4.814,3.231
		C1510.864,469.287,1512.083,473.023,1516.271,473.797z M1461.283,661.802c-0.442-1.91-0.489-4.78-3.724-4.315
		c-5.395,0.774-6.668,8.421-0.263,8.659C1460.115,666.25,1461.657,665.1,1461.283,661.802z M1492.232,451.543
		c2.381,9.011,10.05,7.386,9.135,4.985C1500.041,453.05,1497.478,451.32,1492.232,451.543z M1508.507,434.414
		c4.458,5.525,7.19,8.861,13.632,9.365C1518.371,439.358,1515.742,435.871,1508.507,434.414z M1139.553,545.095
		c-3.273-1.427-6.559-2.608-11.57,0.72C1133.099,546.992,1136.314,547.076,1139.553,545.095z M1018.846,528.03
		c5.673-1.375,4.865-6,3.237-5.549c-2.278,0.631-4.228,1.813-4.742,4.344C1017.282,527.11,1018.31,527.616,1018.846,528.03z
		 M1523.951,434.58c-0.533-3.021-3.565-1.619-3.316-0.041c0.185,1.176,1.149,1.933,2.346,1.648
		C1523.432,436.079,1523.669,435.08,1523.951,434.58z M1069.346,777.9c1.047-0.922,1.017-0.509,0.13-1.594
		C1068.429,777.229,1068.46,776.815,1069.346,777.9z"/>
	<path d="M635.82,254.478c3.661-0.154,2.207-7.645,6.877-5.377c4.966,2.413,0.888,6.684-0.141,9.075
		c-8.528,19.8,0.951,44.668-15.019,65.132c-2.09,2.678-3.779,5.939-4.72,9.202c-14.28,49.495-50.161,102.62-55.942,106.131
		c-17.48,10.616-50.411,35.792-105.267,55.907c-12.979,4.759-22.265,13.56-31.445,22.994
		c-10.725,11.022-24.613,105.609-27.023,120.733c-5.085,31.906-18.573,40.916-12.209,49.002c2.534,3.22,4.831,16.271,8.569,18.72
		c8.372,5.485,12.633,14.175,18.589,21.535c6.393,7.901,14.832,13.645,22.706,19.712c18.719,14.425,62.078,69.355,69.008,76.839
		c15.052,16.256,15.294,27.713,19.092,32.387c10.423,12.826-0.89,36.704-10.994,49.312c-4.9,6.113-26.796,40.839-35.035,49.643
		c-16.801,17.953-8.614,24.428-17.457,36.888c-10.977,15.466,2.654,37.197,15.117,46.231c49.709,36.033,15.319,53.941-2.747,51.314
		c-14.984-2.18-25.769-11.383-37.13-19.831c-10.721-7.972-1.629-16.41-26.572-20.647c-16.52-2.806-31.697-10.234-37.855-15.65
		c-30.819-27.108,30.157-37.005,44.051-79.393c5.913-18.041,15.6-46.719,28.674-60.651c5.677-6.049,6.526-9.89,1.573-16.196
		c-5.439-6.926-11.213-13.876-19.338-18.112c-26.189-13.653-33.411-31.892-89.258-46.326c-26.313-6.801-49.473,1.4-71.277,14.634
		c-55.086,33.434-54.23,49.762-68.966,66.63c-2.183,2.499-6.749,4.134-5.449,9.105c0.406,1.553-0.732,2.836-2.532,3.263
		c-10.177,2.411-5.515,12.775-6.56,14.957c-7.768,16.215-4.743,35.262-13.805,51.313c-7.101,12.578-0.104,20.095-13.502,46.75
		c-4.992,9.931,6.483,11.247-1.1,23.179c-12.733,20.034-0.537,35.357-27.004,45.486c-28.553,10.926-36.263-1.176-53.961,12.472
		c-25.304,19.513-42.167,19.114-69.179,6.47c-25.806-12.079,11.336-38.844,48.338-49.822c14.627-4.34,23.618-19.493,30.868-20.05
		c4.523-0.348,7.149-2.395,4.33-7.823c-1.92-3.698-2.49-8.089-3.723-12.153c-7.195-23.724,18.072-12.967,14.605-35.975
		c-2.022-13.419,3.852-25.709,5.227-38.621c2.047-19.222,11.609-36.577,14.1-55.458c1.866-14.143,10.947-24.935,14.072-38.201
		c14.646-19.817,20.987-44.179,35.37-64.236c5.447-7.596,9.513-16.503,12.591-25.374c4.659-13.428,18.648-19.667,23.788-63.494
		c0.356-3.04,1.368-5.307,3.972-6.568c10.102-4.891,7.033-11.732,8.614-18.262c3.894-16.079-1.069-7.53-19.991-22.49
		c-7.786-6.155-4.433-13.305,3.047-19.829c8.952-7.807,12.099-19.056,16.878-29.178c3.522-7.459,2.561-16.152,0.526-23.984
		c-5.293-20.37,5.537-21.265,0.419-73.052c-1.539-15.569-4.847-31.385-14.347-45.46c-8.936-13.241-15.43-28.153-23.533-42.071
		c-3.992-6.856-4.255-16.231-5.402-24.451c-11.338-81.296-32.642-59.992-57.425-140.296c-4.626-14.992-5.037-21.717-15.831-32.514
		c-20.228-20.234-15.129-35.537-19.55-49.632c-5.127-16.345-9.289-23.029-2.851-25.104c7.249-2.336,3.313,9.89,10.232,12.168
		c0.445-4.466,1.385-8.577-0.663-12.922c-1.307-2.773-3.412-16.315,5.029-16.222c7.206,0.08-2.124,7.105,10.436,26.467
		c0-28.079-1.214-33.005,4.236-33.181c3.844-0.124,5.247,3.025,4.907,6.442c-0.818,8.235,3.085,15.664,3.54,23.71
		c3.524-8.863-1.974-24.448,5.795-25.609c9.741-1.456,7.102,27.372,7.102,50.144c4.079,0.137,4.887-2.086,4.678-4.504
		c-0.215-2.479,2.668-13.555,7.575-12.769c2.64,0.423,1.238,3.136,1.892,4.714c10.133,24.435-16.815,33.414-1.884,56.904
		c45.265,71.215,47.54,67.718,57.945,96.613c10.295,28.591,17.347,23.779,26.815,49.063c3.594,9.599,12.23,16.666,13.763,27.432
		c0.33,2.318,3.123,2.998,5.655,3.235c14.837,1.385,28.985,5.126,42.938,14.321c-6.65-19.596-7.173-38.051-6.347-56.789
		c0.538-12.203,9.082-20.097,13.891-29.981c4.025-8.273,6.135,7.579,12.815-2.08c6.267-9.062,16.551-9.988,25.87-12.664
		c25.06-7.197,76.27,36.556,63.863,63.932c-6.66,14.695,0.86,39.473-17.784,55.88c-5.517,4.856-9.055,11.568-15.447,15.543
		c-1.074,0.668-1.298,2.702-2.215,4.789c14.28,2.427,27.587-6.422,36.65-6.28c1.512,0.024,3.434,0.036,4.484-0.802
		c9.706-7.744,21.851-5.793,32.777-8.616c8.165-2.109,15.455-1.666,23.33,1.81c10.211,4.507,17.205-2.922,59.631-21.73
		c6.376-2.827,11.157-7.201,14.358-12.949c20.15-36.179,72.846-84.613,62.812-100.734c-7.513-12.071-4.713-25.48-5.071-38.472
		c-0.036-1.288-0.269-3.945,1.885-3.256c6.788,2.171,4.5-2.976,5.678-6.004c2.24-5.753,4.362-11.377,4.267-17.687
		c-0.056-3.746,6.451-6.589,6.598,0.065c0.077,3.475,0.022,6.952,0.022,11.027c9.208-5.603,1.221-16.861,7.778-17.447
		c2.32-0.207,3.579,0.754,3.946,3.118c0.165,1.064,0.803,2.941,1.243,2.946c11.763,0.13,7.423,8.919,8.091,14.937
		c0.257,2.313,0.218,4.659,0.314,6.99c-0.595,0.162-1.19,0.324-1.785,0.487c0.256,0.318,0.511,0.637,0.767,0.955
		C635.332,255.633,635.576,255.056,635.82,254.478z"/>
	<path d="M937.603,846.662c-22.677-18.905-29.05-41.122-33.94-52.133c-1.773-3.993-5.846-1.033-4.915,1.256
		c2.061,5.066,1.218,10.752,3.968,15.748c9.9,17.985-0.575,39.991,16.753,57.055c8.399,8.271,11.444,18.609,5.087,30.535
		c-6.74,12.644,8.581,29.536,4.345,66c-1.795,15.447-5.544,31.407-1.194,47.382c1.233,4.526,0.43,9.036-3.89,13.493
		c-7.862,8.112-0.362,18.339-0.694,39.482c-0.371,23.664,8.547,28.092,9.604,61.208c0.614,19.23,3.106,39.401,2.06,43.652
		c-5.046,20.511-1.451,40.637,2.59,60.703c1.874,9.302,39.899,78.848,2.223,73.784c-21.131-2.841-21.16-20.168-40.022-19.808
		c-21.83,0.417-26.741-29.772-13.708-39.26c6.223-4.53,10.618-13.553,4.21-22.521c-1.865-2.611-2.355-4.484,1.59-6.055
		c6.869-2.735,2.494-17.713,0.804-21.197c-7.587-15.644-8.922-33.305-16.406-48.899c-12.631-26.32-1.446-64.222-10.746-77.216
		c-13.8-19.283-6.105-27.791-29.866-81.513c-3.513-7.943-5.347-25.585-15.476-25.592c-4.976-0.003-3.586,4.237-4.853,6.627
		c-6.383,12.039-12.234,24.115-22.084,34.252c-13.046,13.426-10.155,36.467-16.138,41.405c-0.869,0.717-1.812,1.773-2.011,2.809
		c-5.092,26.556-20.26,27.929-24.268,64.864c-0.019,0.175-5.298,37.595-5.298,37.595c-9.729,17.482-11.305,38.16-21.645,55.365
		c-9.585,15.949,4.593,12.528,3.113,21.132c-6.453,37.529,19.573,35.097,7.02,73.086c-3.356,10.157-17.77,12.555-28.533,12.684
		c-8.833,0.106-13.397-7.831-16.417-15.383c-6.796-16.998-0.763-19.971-9.472-49.406c-1.388-4.691-2.214-9.463-1.158-13.723
		c4-16.134,3-32.868,6.543-49.037c0.897-4.094,0.322-8.54,0.215-12.819c-0.281-11.245,2.155-22.129,3.979-33.12
		c1.164-7.016,0.055-45.005,9.442-62.203c6.736-12.342,6.343-35.825,3.909-36.92c-7.498-3.373-4.524-7.978-1.963-12.719
		c1.567-2.9,0.996-6.098,0.994-9.177c-0.073-89.538,11.326-98.478,2.926-114.344c-0.655-1.237-0.884-3.377-0.253-4.512
		c6.862-12.353,4.323-27.868,13.468-39.521c1.719-2.19,3.232-6.611,2.174-8.549c-4.429-8.116,0.375-14.937,1.982-22.168
		c3.486-15.68-4.634-12.861-1.276-27.369c10.242-44.255,0.087-71.393,6.499-95.131c0.946-3.503-0.939-6.733-1.902-10.084
		c-15.017-52.263-32.168-38.19-65.329-82.894c-18.15-24.468-19.773-36.023-3.631-64.367
		c13.696-24.05,99.886-103.088,112.212-112.403c12.587-9.512,32.275-3.775,41.839,7.834c-7.867,1.921-12.834-5.741-19.793-1.277
		c8.904,4.839,21.532,4.734,22.671,18.152c-3.183,1.892-5.942,0.439-8.975-0.373c-8.19-2.193-27.509-0.197-25.088,6.875
		c0.553,1.614,2.455,2.014,3.932,1.524c11.028-3.659,22.507,0.466,34.09-3.191c18.063-5.703,47.685,27.954,53.74,38.835
		c8.66,15.562-0.938,19.987,2.755,31.025c2.542,7.597-2.536,18.106-9.735,22.225c-7.123,4.076-13.179,24.72-3.243,23.415
		c10.465-1.375,20.99,6.28,25.696,3.189c1.653-1.086,4.085-1.389,5.552-0.183c11.553,9.497,19.299-1.122,34.941,18.008
		c21.839,26.712,14.118,32.159,32.379,64.838c9.803,17.544,16.292,36.427,22.175,55.435c5.103,16.488-7.152,32.275-3.351,38.58
		c4.085,6.774-2.44,12.673-1.027,19.118c0.126,0.573-0.493,1.739-1.04,1.965c-9.638,3.97-8.392,13.804-11.282,21.279
		c-6.706,17.344-13.635,6.092-15.732,19.134C947.378,831.552,943.225,838.985,937.603,846.662z M763.941,593.524
		c30.695-6.63,20.377-11.394,22.076-24.984c0.427-3.411-0.212-8.012-5.498-10.363c-19.794-8.801-6.097-23.934-9.705-33.849
		c-4.57-12.555,1.131-22.207,8.242-31.654c2.302-3.058,3.867-6.643,7.068-9.045c2.722-2.043,1.278-6.289-3.472-4.724
		c-8.083,2.664-10.918,8.217-23.848,8.261c-20.03,0.068-44.497,55.059-54.917,75.019c-8.964,17.171,6.299,11.48,40.658,25.791
		C751.106,590.71,759.513,586.252,763.941,593.524z M933.454,720.603c-4.43-9.745-11.008-17.142-18.355-25.695
		C911.203,714.986,916.624,722.348,933.454,720.603z M907.996,689.513c-3.889-0.153-4.076,5.108-0.016,4.901
		C912.445,694.186,911.674,689.658,907.996,689.513z"/>
	<path d="M3267.705,367.336c-5.46-4.233-9.962-9.701-14.805-14.511c2.064-4.592,4.753,2.439,6.764-1.252
		c-1.26-3.117-4.202-4.551-6.808-6.607c-1.726-1.362,1.827-4.792-1.284-7.672c-4.979-4.609-8.37-16.992-14.692-17.131
		c-11.688-0.259-19.653-12.677-29.388-11.933c-4.057,0.31-7.187-1.554-9.612-4.286c1.276-5.23,12.449-0.724,7.842-11.996
		c-1.719-4.206-5.017-7.962-2.867-12.987c3.432-0.364,3.713,4.981,8.73,4.027c-7.185-12.851-5.313-24.917,3.625-37.585
		c1.352,7.321,3.917,13.59,4.725,19.701c3.385,25.616,29.606,26.016,60.492,63.988c2.316,2.847,6.631,2.92,7.95,7.657
		c1.098,3.945,6.666,4.91,9.933,7.463c33.301,26.021,19.388,31.016,39.184,38.082c-1.767-6.025-9.283-6.436-10.441-13.162
		c17.633,6.139,12.475,15.001,23.929,3.635c-10.469-15.755-26.008-25.359-39.416-51.734c-6.252-12.298-14.402-22.76-28.58-26.649
		c-0.925-0.254-2.09-0.159-2.236-1.877c3.86-1.397,7.33,3.581,11.972,0.149c6.676-4.936,26.335,41.645,60.35,71.241
		c-7.719-31.749-8.45-30.266-6.548-34.527c2.046-4.583-4.503-7.466-6.564-11.51l-0.324,0.3c4.586-4.356,2.574-6.492-2.077-18.949
		c0,0-0.365,0.289-0.365,0.289c4.106-0.203,4.047,3.788,5.92,5.844c2.803,3.078,4.918,6.853,9.298,8.659
		c-5.552-9.317-11.803-18.234-14.829-28.75l-0.316,0.299c9.674-2.033,11.641,16.214,24.061,21.569
		c-6.678-12.566-15.653-21.563-22.875-31.803c0.939-2.846,4.803-2.347,5.585-5.256c-5.678-12.72-22.708-9.557-15.917-17.953
		c0.273-0.337-1.446-2.462-2.422-3.598c-2.629-3.062-6.418-5.171-4.682-10.646c0.906-2.857-5.198-1.657-5.059-5.873
		c2.41-1.877,6.198,0.365,9.012-1.536c-3.719-9.045-6.418-12.195-15.586-17.893c1.778-2.838,7.207-3.292,5.013-10.35
		c22.799,23.342,8.666,13.424,58.659,72.525c36.288,42.9,46.411,59.01,77.031,71.061c20.952,8.246,39.173,14.319,50.442,46.169
		c1.474,4.165,5.055,8.357,4.482,12.437c-2.658,18.909,5.264,37.131-1.142,54.411c19.389,6.705,17.28-1.449,42.822-11.081
		c22.568-8.511,31.284-21.671,41.517-30.911c19.031-17.184,14.737-21.185,46.192-67.152c8.061-11.78,27.689-49.408,31.338-57.42
		c2.042-4.485,8.104-11.079-1.706-14.969c-1.218-0.483-1.496-2.274-0.485-2.794c7.144-3.672,3.174-6.31-7.078-20.323
		c-5.002-6.837,6.352-3.082,3.467-8.396c-1.649-3.038-3.702-5.857-6.368-9.936c13.426,1.399,13.145,15.198,21.89,21.291
		c0.992-4.997,1.601-9.675,2.9-14.154c1.332-4.597-3.504-8.742-0.483-13.654c16.715,13.264-3.335,55.279,25.187,46.616
		c7.913-2.404,12.147-4.725,14.586,2.615c0.688,2.069-1.487,3.367-3.293,3.788c-23.763,5.547-36.294,22.094-41.488,44.416
		c-5.848,25.132-19.176,54.982-32.556,86.801c-2.392,5.69-5.639,10.704-10.419,14.984c-4.705,4.213-49.056,52.855-68.838,67.097
		c-7.282,5.243-9.865,13.434-10.088,23.17c-0.791,34.553,13.265,42.403,8.344,58.515c-1.93,6.315-1.658,12.861-3.876,19.153
		c-2.918,8.278-4.59,17.08-0.604,25.901c0.842,1.863,0.741,5.88-0.405,6.623c-5.96,3.865-3.82,9.565-3.931,14.621
		c-0.365,16.598-6.131,15.119-4.752,29.341c2.472,25.507-7.837,54.689,1.542,61.194c2.762,1.916,4.248,5.148,4.563,7.847
		c1.746,14.959,11.887,26.274,16.681,39.917c5.786,16.468,13.149,32.375,19.244,48.743c4.027,10.814,11.15,18.638,20.792,24.268
		c18.116,10.577,38.822,35.644,26.639,52.156c-10.745,14.562-18.396-1.127-19.432,11.333c-1.243,14.928-22.2,25.64-36.948,19.169
		c-5.953-2.612-12.008-4.993-18.494-6.424c-18.884-4.167-18.084-24.56-41.385-48.388c-11.988-12.259-10.91-32.903-27.618-32.439
		c-13.727,0.382-14.557-20.721-21.134-20.242c-4.771,0.348-6.52,4.589-7.264,9.015c-0.188,1.118-1.234,2.21-1.133,3.239
		c1.224,12.441-4.87,23.713-5.481,36.093c-0.504,10.211-5.98,20.238-9.627,30.21c-9.051,24.753-18.519,36.231-42.742,31.062
		c-28.116-6-42.621-31.803-77.486-108.351c-13.017-28.582-24.923-44.356-47.565-40.79c-39.1,6.158-56.105,4.714-66.847,8.869
		c-0.158-5.64,2.922-8.845,5.789-11.25c15.88-13.324,25.57-28.239,46.99-38.519c12.841-6.163,24.076-14.818,36.215-22.036
		c6.38-3.794,5.349-1.792,11.31,3.089c12.329,10.096,8.207,16.658,30.86,49.283c2.568,3.698,6.129,5.888,10.916,5.236l-0.327-0.354
		c0.872,8.437-0.532,5.596,19.191,25.039c1.356,1.337,2.664,2.963,4.821,2.943c1.861-0.017,3.966,0.703,5.382-1.224
		c1.252-1.704,1.406-3.726,0.577-5.513c-10.655-22.951,0.913-51.196,0.61-53.862c-2.05-18.016,11.737-33.684,7.43-44.499
		c-0.865-2.171-1.459-5.376,3.574-5.81c2.347-0.202-1.213-4.633,0.719-8.124c2.216-4.003,2.607-8.767,6.024-12.967
		c7.988-9.821-4.37-15.53,3.87-24.791c12.125-13.628-4.857-23.039-2.59-35.662c2-11.141-0.61-22.525,2.179-33.571
		c1.421-5.63-2.106-10.448-2.692-15.773c-0.396-3.606-3.383-3.74-18.189-3.23c-2.78,0.095-5.737,3.801-8.266-0.118
		c-9.407-14.586,2.989-15.503-0.792-24.602c-3.438-8.273-17.191-2.358-19.226-18.782c-0.693-5.592-0.476-12.634-3.748-16.215
		c-3.675-4.022-10.961-1.039-16.666-0.991c-26.871,0.224-22.854,14.228-31.291,5.444c-3.188-3.32-3.607-2.918-9.26,1.296
		c-3.079-1.191-1.628-4.592-2.934-6.71c-2.613-4.235-4.087-9.285-10.886-7.675c-3.583,0.849-7.184-6.615-0.318-6.383
		c4.868,0.164,6.353-6.357,12.098-5.527c2.697,0.39,3.152-6.877-0.314-7.99c-9.053-2.906-7.424-9.401-7.219-15.978
		c4.799-0.434,13.245,10.608,16.682,1.353c1.765-4.751,7.472-6.694,9.688-12.434c-11.527-3.996-24.97-8.184-36.939-14.123
		c-15.992-7.937-7.323,11.487-22.208,2.688l0.35,0.289c7.815-11.871,19.845-8.336,34.36-17.632c-6.234-2-12.469-4.001-18.742-6.013
		c2.577-4.824,7.546-3.53,11.477-4.825c-6.26-7.011-15.823-5.884-25.177-10.658c12.059-2.792,20.63,7.54,31.135,3.487
		c-5.062-7.764-15.697-8.378-21.29-16.823c13.587,0.438,29.948,20.439,42.514,17.202c0.059,1.053-0.028,2.143,0.23,3.145
		c0.172,0.667,1.192,0.427,1.079-0.355C3308.775,407.082,3284.855,380.633,3267.705,367.336z M3360.986,327.267
		c-0.174-1.291,0.065-0.941-0.838-1.268c1.411,1.201,0.773,0.523,3.267,3.555c0.298,1.26,0.952,2.11,2.383,2.062
		c0.488,1.274,1.213,2.244,2.763,2.158c-0.586,3.178-2.837,6.576,1.957,9.847c0.838-4.008,0.528-6.987-2.27-9.538
		c-0.537-1.205-1.261-2.174-2.752-2.173c0.19-1.823-0.443-2.693-2.378-2.052C3363.289,328.268,3362.547,327.431,3360.986,327.267z
		 M3283.45,433.941c11.514,3.416,23.028,6.832,34.542,10.247C3308.261,434.448,3297.1,429.77,3283.45,433.941z M3342.063,467.582
		c-9.667-2.417-12.234-1.394-18.004,7.521C3330.367,470.31,3336.24,469.362,3342.063,467.582z M3306.218,481.835
		c3.748,4.175,3.737-1.881,2.203-2.048C3307.097,479.643,3306.571,480.72,3306.218,481.835z M3343.021,483.44
		c-1,0.816-4.624,3.185-1.988,3.983c1.761,0.533,2.713-0.637,3.104-2.126C3344.25,484.867,3343.51,484.213,3343.021,483.44z"/>
	<path d="M1854.368,492.991c1.116-3.339-3.219-4.136-1.846-6.647c1.404-2.568,3.397-1.835,5.933-1.141
		c5.896,1.614,12.109,1.205,18.177,2.87c12.222,3.355,8.717-9.995,10.185-12.067c6.731-9.497-11.901-6.13-8.222-13.142
		c1.982-3.779,5.427-0.082,7.888,1.019c3.825,1.711,8.127,2.92,10.812,6.478c3.797,5.031,7.689,4.114,11.759,0.567
		c-1.466-4.264-9.053-6.062-4.772-13.082c9.288,4.318,17.533,11.284,28.029,12.367c11.281,1.164,20.839,5.99,30.562,11.442
		c7.59,4.256,16.724,5.385,24.281,10.388c16.76,11.096,4.299,21.096,10.928,47.018c2.12,8.291,0.963,17.164-6.976,23.144
		c-3.289,2.477-4.8,6.147-6.083,9.687c-1.891,5.22,0.31,7.42,6.682,7.854c5.337,0.364,10.308,2.651,15.902,2.26
		c39.303-2.751,24.026-4.18,50.735-1.358c17.667,1.867,35.516,3.072,53.224-0.991c5.439-1.248,7.932-4.145,8.531-9.357
		c1.623-14.117,6.964-27.7,6.463-42.087c-0.233-6.68,5.565-12.719,3.12-18.811c-2.198-5.475-7.671-9.535-10.985-14.68
		c-8.267-12.832-7.315-15.89,6.106-23.105c13.109-7.047,18.681-5.558,27.015,6.885c5.758,8.597,9.871,17.568,7.089,28.199
		c-2.227,8.511,10.028,1.519,4.832,22.953c-6.778,27.959,4.49,49.668-26.062,71.58c-21.499,15.419-42.249,16.095-69.382,18.093
		c-10.242,0.754-18.703,6.594-26.669,12.568c-2.109,1.581-3.438,4.974-3.455,8.312c-0.119,22.258-10.793,27.282-4.667,48.554
		c2.85,9.895,2.798,33.549,7.952,41.706c1.346,2.13,1.505,4.407,1.367,6.727c-0.98,16.574,3.95,32.856,2.377,49.464
		c-0.826,8.723,4.531,16.244,5.111,24.763c0.103,1.51,2.085,3.402,3.664,4.214c14.458,7.436,0.537,16.749,14.416,46.81
		c7.178,15.547,4.834,23.116,8.546,28.815c11.253,17.282-13.83,9.125-9.297,35.566c7.678,44.78-0.499,63.834,5.165,82.089
		c1.333,4.297-1.94,8.9-2.021,13.688c-0.396,23.31-5.692,45.407-16.124,66.423c-7.481,15.073-13.25,30.966-22.588,45.161
		c-2.173,3.303-3.596,8.761-0.493,11.807c12.673,12.444,5.595,37.131,11.959,55.471c6.621,19.083-23.182,31.002-35.8,9.231
		c-15.611-26.937-31.18-31.832-25.536-48.187c3.482-10.091,5.405-21.058,16.132-26.665c3.649-1.907,4.229-5.592,4.653-8.697
		c2.753-20.154,7.01-40.072,7.585-60.582c0.88-31.339,22.57-35.379,13.659-56.362c-6.823-16.066-8.404-42.12-30.929-77.241
		c-5.614-8.753-11.84-17.026-15.587-26.833c-0.263-0.688-0.853-1.358-1.465-1.787c-3.351-2.347-5.126-8.064-10.163-6.598
		c-4.851,1.412-4.658,6.591-5.021,10.758c-1.48,16.984-13.979,13.991-21.725,26.891c-21.674,36.1-17.007,48.476-24.961,66.864
		c-16.631,38.441-3.427,64.853-15.792,94.607c-3.095,7.447-3.837,15.557-5.764,23.258c-6.845,27.353,13.556,43.514-5.34,54.053
		c-4.488,2.503-6.709,6.33-8.592,11.498c-2.538,6.963-7.907,12.902-12.155,19.218c-0.895,1.331-38.718,3.867-33.927-11.37
		c7.386-23.491,19.829-33.571,12.651-51.754c-1.397-3.539,0.102-4.39,3.622-4.756c12.241-1.274,13.071-2.587,10.288-14.139
		c-1.994-8.275-0.719-16.743-0.696-25.01c0.041-14.758-1.996-29.285-2.757-43.931c-0.474-9.136-9.019-8.071-1.83-24.002
		c12.444-27.578,15.657-56.664,16.077-86.477c0.246-17.421,2.676-34.788,2.199-52.264c-0.066-2.405,0.962-4.425,1.723-6.631
		c3.191-9.248,2.328-18.59,1.935-28.321c-1.665-41.222,20.237-52.393,11.181-67.14c-7.78-12.669-8.411-27.635-12.389-41.535
		c-1.158-4.049,0.32-8.251,2.41-12.7c-38.958-8.024-34.002-34.792-69.251-52.014c-12.15-5.937-17.918-13.365-17.205-18.451
		c0.912-6.51-3.562-44.957,40.184-44.957c-49.242-35.728-66.772-35.263-59.326-47.553c0.872-1.439,0.273-3.821,0.212-5.765
		c-0.748-24.063,8.814-51.18,6.932-73.7c-2.323-27.79,17.673-22.559,27.15-45.135c3.89-9.266,10.496-11.461,19.418-10.338
		c7.216,0.908,14.114,2.079,20.426,6.553c8.639,6.124-2.596,5.496-3.153,18.685c-0.648,15.35-16.163,2.803-19.349,19.357
		c-0.467,2.425-1.632,4.33-3.032,6.203c-2.259,3.022,0.082,4.738,2.25,4.827C1833.193,493.012,1843.941,493.973,1854.368,492.991z
		 M1845.797,506.258c-8.869-2.855-17.265-0.447-24.982-3.905c-6.211-2.783-9-1.132-8.924,5.101
		c0.16,13.153-5.851,16.407-4.875,43.591c0.449,12.489,9.538,3.751,16.913,12.293c4.704,5.448,10.883,6.831,17.204,8.412
		c1.875,0.469,4.245,0.479,5.501,1.65c12.825,11.958,31.94-6.081,46.894,0.03c8.872,3.626,18.039,6.906,25.597,13.197
		c10.089,8.397,14.449,4.074,13.828-1.618c-0.666-6.095-2.285-12.101-3.726-18.088c-2.027-8.421-17.283-4.557-14.56-21.332
		c1.716-10.573-1.114-20.794-0.411-31.225c0.578-8.581-1.002-9.26-9.393-5.619c-24.342,10.565-28.393,30.94-39.413,33.654
		c-0.092-6.592,5.344-10.231,5.561-15.714c-2.527-1.373-5.246-1.37-7.859-0.59c-41.528,12.381-43.001,15.752-44.012,11.342
		c-1.657-7.224,19.271-3.495,28.081-18.998c-7.845,1.415-13.985,4.264-21.397,1.664
		C1832.477,515.136,1841.444,515.108,1845.797,506.258z"/>
	<path d="M2320.141,950.378c-6.177,9.305-14.566,25.317-31.505,29.442c-10.667,2.597-20.711-1.265-26.087-10.851
		c-8.972-15.996-15.018-32.432-14.214-51.564c0.924-22.015,0.323-44.028,6.826-65.425c1.157-3.806,0.989-7.736-1.687-11.086
		c-8.688-10.879,17.949-36.966,7.443-75.869c-1.687-6.246,4.483-11.048-3.156-18.263c2.212,14.229-5.805,24.054-7.26,35.767
		c-1.048,8.441-30.91,30.385-34.506,10.75c-0.909-4.965,2.167-5.68,6.052-6.178c2.208-0.283,4.277-1.656,6.764-2.685
		c-0.809-4.531-1.971-8.652,1.984-13.313c27.125-31.969,1.761-54.328,15.716-69.972c3.396-3.806,2.041-8.908,2.127-13.507
		c0.201-10.763,0.622-11.303,10.649-12.262c7.891-0.755,8.507-0.801,7.919-8.651c-0.797-10.638,2.049-20.836,2.604-31.297
		c0.829-15.651-2.229-31.021-2.469-46.569c-0.207-13.322-49.201-101.342-49.771-102.381c-2.634-4.804-6.796-9.04-4.542-15.725
		c0.743-2.203-1.807-5.641-3.113-8.391c-9.701-20.417-20.936-40.1-28.594-61.5c-2.189-6.117-6.21-11.558-9.126-17.441
		c-2.994-6.038-21.866-8.96-16.264-24.273c1.533-4.19,0.493-6.909-1.115-9.485c-2.519-4.034-1.881-7.339,2.18-8.115
		c14.969-2.861-0.795-24.098,15.737-27.535c2.268-0.471,0.262-6.338,4.488-7.187c2.323,2.13-0.028,9.705,3.979,7.658
		c6.825-3.487,6.918,2.112,6.039,5.363c-1.379,5.1-0.925,9.66,0.415,14.482c0.402,1.447,0.628,3.394-0.015,4.608
		c-7.782,14.697,16.472,40.01,41.301,91.026c8.917,18.321,19.763,35.876,34.884,51.859c10.372-27.478-7.826-11.633-10.299-24.638
		c11.877-4.038,25.779-5.134,32.312-18.981c-9.322-5.108-30.656-5.346-34.213-6.892c-0.925-0.402-3.434-2.383-1.576-3.348
		c7.178-3.73,3.865-7.994,0.624-11.989c4.482-4.528,8.17-1.051,12.012-0.29c2.163,0.428,5.512,0.269,4.013-3.306
		c-2.438-5.814-0.919-4.484,4.22-4.501c19.918-0.067,37.034,8.875,55.118,14.904c33.153,11.052,50.255,42.662,50.261,43.665
		c0.231,36.439,6.121,27.219-9.506,62.734c-1.599,3.633-3.154,7.454,0.903,10.381c4.02,2.901,8.997,7.756,13.49,4.231
		c11.743-9.214,20.336-1.16,44.217-20.507c16.958-13.738,28.641-32.181,43.465-47.742c21.63-22.706,33.718-60.998,59.53-83.58
		c10.791-9.44-5.737-21.337,4.735-31.755c0.779,5.204,0.927,10.249,5.939,14.431c2.031-5.316,3.815-9.982,5.571-14.576
		c5.79,1.264,0.491,7.007,5.567,8.955c4.981,1.912,8.603,6.769,8.742,11.771c0.053,1.91-0.982,4.696,0.558,5.493
		c9.458,4.898,1.865,11.563,2.038,17.355c0.03,1.018-0.61,2.313-1.36,3.06c-17.836,17.782-103.301,139.348-112.336,151.748
		c-16.621,22.807-24.068,19.865-30.979,55.508c-0.441,2.272,0.028,4.839-0.826,6.894c-6.11,14.705-6.94,30.727-11.466,45.697
		c-4.586,15.173,4.497,46.794,8.514,60.164c4.113,13.689-2.25,20.194,5.895,46.877c4.15,13.593,7.364,27.782,3.152,42.187
		c-1.438,4.921,0.302,10.06-1.64,14.982c-0.879,2.229,0.484,5.036,2.996,5.547c9.687,1.967,13.808,9.586,17.259,17.307
		c14.098,31.537,26.892,35.721,25.232,60.902c-0.922,13.985-11.275,19.013-20.298,8.295c-2.245-2.666-5.215-4.785-7.151-7.631
		c-2.478-3.644-4.515-7.206-9.852-6.29c-3.365,0.578-4.484-2.353-6.146-4.443c-2.997-3.771-5.595-1.907-7.155,1.185
		c-5.118,10.147-1.544,18.091-15.681,35.406c-7.528,9.22-15.332,18.432-25.01,25.566c-9.819,7.238-33.047,8.865-42.688-4.758
		C2329.095,957.713,2325.939,953.785,2320.141,950.378z"/>
	<path d="M3337.733,315.366c-7.862-4.154-1.282-7.164-0.068-2.818c0.266,0.952-0.13,2.089-0.228,3.143L3337.733,315.366z"/>
	<path d="M3354.126,785.241c0.351-1.723,1.124-0.218-0.327-0.354L3354.126,785.241z"/>
	<path d="M4882.635,37.376c0.831-0.997,1.664-0.984,2.5-0.006c0,0,0.155-0.302,0.155-0.303c-0.94,0-1.879,0-2.819,0L4882.635,37.376
		z"/>
	<polygon points="3261.947,387.064 3261.702,386.499 3262.296,386.557 	"/>
	<path d="M3253.104,441.096c0.703,0.71,0.455,2.072,0.029,1.92c-2.345-0.838-0.117-1.115,0.322-1.631L3253.104,441.096z"/>
	<path d="M3339.961,317.859c-1.244-0.383-2.045-1.162-2.228-2.493l-0.296,0.325c2.421-0.682,2.911,0.357,2.2,2.467L3339.961,317.859
		z"/>
	<path d="M3337.56,299.21c-0.437-0.477-0.874-0.954-1.31-1.431c0.202-0.158,0.472-0.494,0.596-0.447
		c1.315,0.504,0.827,1.344,0.349,2.166C3337.195,299.499,3337.56,299.21,3337.56,299.21z"/>
	<path d="M3337.584,285.251c-0.693-1.001-0.586-0.62-0.444-1.29c0.043,0.53,0.085,1.059,0.128,1.589
		C3337.267,285.55,3337.584,285.251,3337.584,285.251z"/>
</g>
</svg>
